<svg width="150" height="32" viewBox="0 0 150 32" fill="none" xmlns="http://www.w3.org/2000/svg">
<path d="M57.3154 21.0477C57.3154 22.0674 57.1158 22.6105 55.8845 23.1315C54.9083 23.5416 53.4773 23.8298 52.0796 23.8298C47.9531 23.8298 44.603 21.4023 44.603 16.6029C44.603 11.4821 48.3857 9.30957 52.1905 9.30957C53.4995 9.30957 54.9083 9.5645 55.9066 10.0855C56.6055 10.4512 57.0603 10.9279 57.0603 11.6927C57.0603 12.4907 56.5389 13.71 55.4518 13.71C54.997 13.71 54.5644 13.5105 54.043 13.2999C53.4108 13.0449 52.8006 12.8676 52.0685 12.8676C50.2604 12.8676 48.6186 13.9095 48.6186 16.5808C48.6186 19.252 50.2049 20.3826 52.0907 20.3826C52.8561 20.3826 53.3775 20.1831 53.3775 20.1831V19.1855C53.3775 18.4872 53.3775 18.0106 53.677 17.6227C53.9765 17.2347 54.4757 17.0352 55.352 17.0352C56.2283 17.0352 56.7164 17.2347 57.027 17.6227C57.3376 18.0106 57.3265 18.4872 57.3265 19.1855V21.0477H57.3154Z" fill="#231815"/>
<path d="M63.6608 21.5672C63.6608 22.2655 63.6608 22.7421 63.3835 23.13C63.1062 23.518 62.6181 23.7175 61.7972 23.7175C60.9763 23.7175 60.4882 23.518 60.2109 23.13C59.9336 22.7421 59.9336 22.2655 59.9336 21.5672V11.8575C59.9336 11.0816 59.9336 10.1395 61.3202 9.70718C61.9525 9.50767 62.8843 9.38574 64.3375 9.38574C65.5355 9.38574 66.8555 9.47442 68.0757 10.0397C69.5733 10.738 70.4607 12.0127 70.4607 13.8859C70.4607 15.6261 69.6842 16.9673 68.2421 17.7764L71.2372 21.7445C71.9361 22.6756 71.4923 23.7175 69.6287 23.7175C68.1978 23.7175 67.6542 23.1079 66.9776 22.0881L65.48 19.827C65.0918 19.2174 64.7812 18.6299 64.7812 18.6299H63.6497V21.5561L63.6608 21.5672ZM63.6608 15.6372C63.6608 15.6372 63.9603 15.6594 64.2709 15.6594C65.8794 15.6594 66.5117 15.0276 66.5117 14.0965C66.5117 13.0102 65.6686 12.6666 64.5371 12.6666C64.0601 12.6666 63.6719 12.7331 63.6719 12.7331V15.6372H63.6608Z" fill="#231815"/>
<path d="M80.5216 9.26465C85.1251 9.26465 88.0204 12.3682 88.0204 16.5802C88.0204 20.7921 85.0475 23.8957 80.4329 23.8957C75.8182 23.8957 72.9341 20.7921 72.9341 16.5802C72.9341 12.3682 75.907 9.26465 80.5216 9.26465ZM80.4772 20.4929C82.6292 20.4929 84.0158 19.063 84.0158 16.5802C84.0158 14.0973 82.6292 12.6675 80.4772 12.6675C78.3252 12.6675 76.9386 14.0973 76.9386 16.5802C76.9386 19.063 78.3252 20.4929 80.4772 20.4929Z" fill="#231815"/>
<path d="M97.1275 9.26465C101.731 9.26465 104.626 12.3682 104.626 16.5802C104.626 20.7921 101.653 23.8957 97.0388 23.8957C92.4242 23.8957 89.54 20.7921 89.54 16.5802C89.54 12.3682 92.5129 9.26465 97.1275 9.26465ZM97.0832 20.4929C99.2352 20.4929 100.622 19.063 100.622 16.5802C100.622 14.0973 99.2352 12.6675 97.0832 12.6675C94.9312 12.6675 93.5446 14.0973 93.5446 16.5802C93.5446 19.063 94.9312 20.4929 97.0832 20.4929Z" fill="#231815"/>
<path d="M115.144 11.371C115.554 10.2404 115.931 9.44238 117.684 9.44238C118.949 9.44238 119.559 9.8525 119.559 10.6616C119.559 11.0274 119.426 11.3821 119.237 11.8587L114.911 21.8898C114.367 23.1534 114.023 23.7298 112.415 23.7298C110.629 23.7298 110.33 23.0093 109.853 21.8898L105.726 11.9031C105.549 11.5151 105.404 11.1383 105.404 10.7281C105.404 9.84141 106.103 9.44238 107.357 9.44238C108.921 9.44238 109.376 10.052 109.875 11.4154L112.526 18.62L115.155 11.371H115.144Z" fill="#231815"/>
<path d="M125.549 21.5678C125.549 22.2661 125.549 22.7427 125.249 23.1306C124.95 23.5186 124.45 23.7181 123.574 23.7181C122.698 23.7181 122.21 23.5186 121.899 23.1306C121.6 22.7427 121.6 22.2661 121.6 21.5678V11.581C121.6 10.8827 121.6 10.4061 121.899 10.0181C122.21 9.63018 122.709 9.43066 123.574 9.43066C124.439 9.43066 124.939 9.63018 125.249 10.0181C125.56 10.4061 125.549 10.8827 125.549 11.581V21.5678Z" fill="#231815"/>
<path d="M132.68 21.5678C132.68 22.2661 132.68 22.7427 132.381 23.1306C132.103 23.5186 131.615 23.7181 130.772 23.7181C129.929 23.7181 129.441 23.5186 129.164 23.1306C128.864 22.7427 128.864 22.2661 128.864 21.5678V10.9492C128.864 10.0181 129.541 9.43066 130.994 9.43066C132.447 9.43066 133.057 10.0181 133.601 10.7386L138.426 17.3447V11.5921C138.426 10.8938 138.426 10.4172 138.726 10.0292C139.003 9.64126 139.491 9.44175 140.334 9.44175C141.177 9.44175 141.665 9.64126 141.943 10.0292C142.242 10.4172 142.242 10.8938 142.242 11.5921V22.2328C142.242 23.2747 141.566 23.7957 140.401 23.7957C139.236 23.7957 138.615 23.2969 138.049 22.5543L132.68 15.538V21.5789V21.5678Z" fill="#231815"/>
<path d="M149.087 9.28693C149.087 9.83005 148.809 11.0493 148.477 12.0912C148.155 13.1109 147.844 13.7871 146.502 13.7871C145.371 13.7871 144.982 13.3105 144.982 12.5457C144.982 11.9582 145.226 10.3953 145.348 9.80788C145.548 8.92115 145.914 8.08984 147.434 8.08984C148.521 8.08984 149.087 8.49996 149.087 9.28693Z" fill="#231815"/>
<path d="M30.7593 14.6853C32.3012 16.226 32.8225 17.3344 31.7354 19.9835C30.8813 22.0784 29.1508 24.661 27.0543 26.7559C20.8312 32.9741 12.1233 34.3485 4.89074 27.1106C-2.84098 19.396 -0.411641 10.429 5.31227 4.70959C7.27571 2.74771 9.79378 1.01858 12.09 0.298116C13.6985 -0.189585 15.1073 -0.156333 16.2498 0.985331C17.4589 2.1935 18.5128 4.80935 16.871 6.4498C16.1833 7.13702 15.2293 7.49171 14.12 7.95724C12.7778 8.51145 11.6019 9.16541 10.4815 10.2738C7.76379 12.9894 6.84308 17.0462 10.8698 21.0698C14.8965 25.0933 18.9898 24.4061 21.8406 21.5575C22.9832 20.4158 23.4824 19.3406 23.4824 19.3406L21.9737 17.8332C20.931 16.7913 20.21 16.0708 20.0769 15.0178C19.9437 13.9648 20.4096 12.9229 21.7186 11.615C23.0276 10.3071 24.0814 9.85262 25.1241 9.97455C26.1668 10.0965 26.8879 10.828 27.9417 11.8699L30.7593 14.6853Z" fill="#45BF86"/>
<path d="M34.6414 8.49946L32.3673 10.816C31.5908 11.5476 30.3928 11.5476 29.6274 10.816L27.3534 8.49946C26.5769 7.7679 26.5769 6.52648 27.3534 5.79493L29.6274 3.47835C30.4039 2.7468 31.6019 2.7468 32.3673 3.47835L34.6414 5.79493C35.4179 6.52648 35.4179 7.7679 34.6414 8.49946Z" fill="#149EF2"/>
</svg>
