<svg width="16" height="16" viewBox="0 0 16 16" fill="none" xmlns="http://www.w3.org/2000/svg">
<path fill-rule="evenodd" clip-rule="evenodd" d="M10.1284 2.63205C10.1284 2.63205 10.1284 2.63204 10.1284 2.63204L9.98602 2.49124C10.6424 1.8366 11.7067 1.8362 12.3636 2.49034L13.7066 3.82773C14.3582 4.47658 14.365 5.52726 13.722 6.1845L13.5799 6.04408C13.5799 6.04415 13.5798 6.04422 13.5797 6.0443L13.7218 6.18472L9.28473 10.7321L9.28451 10.7323C8.86656 11.1594 8.29349 11.4 7.69523 11.4L6.21195 11.3999C5.40942 11.3999 4.76726 10.7335 4.80108 9.93265L4.86476 8.42504C4.88817 7.87079 5.11949 7.34562 5.51274 6.95341L5.51276 6.9534L9.986 2.49125L9.98602 2.49124L10.1284 2.63205ZM10.0987 3.80111L10.0987 3.80109L10.0149 4.30754L10.0149 4.30751L10.0987 3.80111ZM9.17159 9.40592L9.17177 9.40573L9.22894 9.06006L11.2636 6.97171L9.8132 5.5274L9.85327 5.28506L9.85322 5.28502L9.81314 5.52735L9.23148 4.94812L6.36688 7.80586L6.36687 7.80588C6.18769 7.98458 6.08246 8.22366 6.07181 8.47579L6.00813 9.9834C6.0033 10.0979 6.09526 10.1946 6.212 10.1946L7.69528 10.1946C7.96828 10.1947 8.22959 10.0848 8.42003 9.89033L8.42014 9.89021L9.22877 9.06024L9.17159 9.40592ZM9.22877 9.06024L9.22894 9.06006L9.8132 5.5274L9.81314 5.52735L9.22877 9.06024ZM10.7022 3.19923C10.7022 3.19924 10.7022 3.19925 10.7021 3.19927L10.8442 3.33971C10.8428 3.34103 10.8415 3.34237 10.8401 3.34372L10.0859 4.09594L12.1073 6.10895L12.8574 5.3426C12.8595 5.34048 12.8615 5.33835 12.8635 5.33621L13.006 5.47704C13.006 5.47698 13.0061 5.47692 13.0062 5.47686L12.8637 5.33603C13.038 5.15106 13.034 4.86101 12.8531 4.68085L11.5101 3.34347C11.3265 3.16059 11.0294 3.15935 10.8442 3.33966L10.7022 3.19923ZM10.8442 3.33966C10.8442 3.33967 10.8442 3.33969 10.8442 3.33971L12.8635 5.33621C12.8636 5.33615 12.8637 5.33609 12.8637 5.33603L10.8442 3.33966Z" fill="#8C8C8C"/>
<path d="M12.8 8.80039V12.2004C12.8 13.305 11.9046 14.2004 10.8 14.2004H4C2.89543 14.2004 2 13.305 2 12.2004V5.40039C2 4.29582 2.89543 3.40039 4 3.40039H7.4" stroke="#8C8C8C" stroke-width="1.1" stroke-linecap="round"/>
</svg>
