<svg width="48" height="48" viewBox="0 0 48 48" fill="none" xmlns="http://www.w3.org/2000/svg">
<circle cx="24" cy="24" r="24" fill="#28b070" />
<g clip-path="url(#clip0_501_11321)">
<path d="M20.9318 28.4768V19.5863L28.7727 24.0318L20.9318 28.4768ZM38.3731 16.7888C38.0281 15.4941 37.0115 14.4745 35.7208 14.1285C33.3813 13.4996 24 13.4996 24 13.4996C24 13.4996 14.6187 13.4996 12.2792 14.1285C10.9885 14.4745 9.97186 15.4941 9.62689 16.7888C9 19.1355 9 24.0316 9 24.0316C9 24.0316 9 28.9276 9.62689 31.2743C9.97186 32.569 10.9885 33.5886 12.2792 33.9348C14.6187 34.5635 24 34.5635 24 34.5635C24 34.5635 33.3813 34.5635 35.7208 33.9348C37.0115 33.5886 38.0281 32.569 38.3731 31.2743C39 28.9276 39 24.0316 39 24.0316C39 24.0316 39 19.1355 38.3731 16.7888Z" fill="white"/>
</g>
<defs>
<clipPath id="clip0_501_11321">
<rect width="30" height="21.0638" fill="white" transform="translate(9 13.5)"/>
</clipPath>
</defs>
</svg>
