<svg width="48" height="48" viewBox="0 0 48 48" fill="none" xmlns="http://www.w3.org/2000/svg">
<circle cx="24" cy="24" r="24" fill="#8C8C8C" fill-opacity="0.5"/>
<g clip-path="url(#clip0_501_11341)">
<mask id="mask0_501_11341" style="mask-type:luminance" maskUnits="userSpaceOnUse" x="9" y="12" width="30" height="24">
<path d="M39 12H9V35.2394H39V12Z" fill="white"/>
</mask>
<g mask="url(#mask0_501_11341)">
<path d="M34.3963 14.0693C32.4842 13.192 30.4337 12.5456 28.2899 12.1754C28.2508 12.1682 28.2118 12.1861 28.1917 12.2218C27.928 12.6908 27.6359 13.3027 27.4314 13.7836C25.1255 13.4384 22.8315 13.4384 20.5729 13.7836C20.3683 13.292 20.0656 12.6908 19.8007 12.2218C19.7806 12.1873 19.7416 12.1694 19.7026 12.1754C17.5599 12.5444 15.5095 13.1908 13.5962 14.0693C13.5796 14.0765 13.5654 14.0884 13.556 14.1039C9.66674 19.9143 8.60131 25.5819 9.12398 31.1793C9.12634 31.2067 9.14171 31.2329 9.163 31.2495C11.729 33.134 14.2146 34.278 16.6541 35.0363C16.6931 35.0482 16.7345 35.0339 16.7594 35.0017C17.3364 34.2137 17.8508 33.3828 18.2918 32.509C18.3179 32.4578 18.293 32.3971 18.2398 32.3769C17.4239 32.0674 16.647 31.69 15.8997 31.2615C15.8405 31.2269 15.8358 31.1424 15.8902 31.1019C16.0475 30.9841 16.2048 30.8614 16.3549 30.7376C16.3821 30.715 16.42 30.7103 16.4519 30.7245C21.3616 32.9661 26.6769 32.9661 31.5287 30.7245C31.5606 30.7091 31.5985 30.7139 31.6268 30.7365C31.7771 30.8603 31.9343 30.9841 32.0928 31.1019C32.1472 31.1424 32.1436 31.2269 32.0845 31.2615C31.3372 31.6983 30.5602 32.0674 29.7431 32.3757C29.6899 32.3959 29.6663 32.4578 29.6923 32.509C30.1428 33.3816 30.6572 34.2125 31.2236 35.0006C31.2473 35.0339 31.2898 35.0482 31.3289 35.0363C33.7802 34.278 36.2658 33.134 38.8318 31.2495C38.8543 31.2329 38.8685 31.2079 38.8708 31.1805C39.4964 24.7093 37.8231 19.0882 34.4353 14.105C34.427 14.0884 34.4128 14.0765 34.3963 14.0693ZM19.025 27.7711C17.5469 27.7711 16.3289 26.414 16.3289 24.7474C16.3289 23.0808 17.5233 21.7238 19.025 21.7238C20.5386 21.7238 21.7448 23.0928 21.7211 24.7474C21.7211 26.414 20.5268 27.7711 19.025 27.7711ZM28.9934 27.7711C27.5153 27.7711 26.2974 26.414 26.2974 24.7474C26.2974 23.0808 27.4917 21.7238 28.9934 21.7238C30.507 21.7238 31.7132 23.0928 31.6896 24.7474C31.6896 26.414 30.507 27.7711 28.9934 27.7711Z" fill="white"/>
</g>
</g>
<defs>
<clipPath id="clip0_501_11341">
<rect width="30" height="23.2394" fill="white" transform="translate(9 12)"/>
</clipPath>
</defs>
</svg>
