<svg width="48" height="48" viewBox="0 0 48 48" fill="none" xmlns="http://www.w3.org/2000/svg">
<circle cx="24" cy="24" r="24" fill="#c5c5c5"/>
<g clip-path="url(#clip0_501_11327)">
<path d="M17.7876 9.10491C16.1916 9.18021 15.1017 9.43491 14.1489 9.80931C13.1628 10.1936 12.327 10.7093 11.4954 11.5439C10.6638 12.3785 10.1517 13.2149 9.77012 14.2025C9.40082 15.1574 9.15062 16.2482 9.08012 17.8451C9.00962 19.442 8.99402 19.9553 9.00182 24.0287C9.00962 28.1021 9.02762 28.6127 9.10502 30.2129C9.18122 31.8086 9.43502 32.8982 9.80942 33.8513C10.1943 34.8374 10.7094 35.6729 11.5443 36.5048C12.3792 37.3367 13.215 37.8476 14.205 38.2298C15.159 38.5985 16.2501 38.8499 17.8467 38.9198C19.4433 38.9897 19.9572 39.0059 24.0294 38.9981C28.1016 38.9903 28.6143 38.9723 30.2142 38.8964C31.8141 38.8205 32.898 38.5649 33.8514 38.1923C34.8375 37.8065 35.6736 37.2923 36.5049 36.4571C37.3362 35.6219 37.848 34.7849 38.2293 33.7967C38.5989 32.8427 38.85 31.7516 38.9193 30.1562C38.9892 28.5551 39.0057 28.0439 38.9979 23.9711C38.9901 19.8983 38.9718 19.3877 38.8959 17.7881C38.82 16.1885 38.5659 15.1022 38.1918 14.1485C37.8063 13.1624 37.2918 12.3275 36.4572 11.495C35.6226 10.6625 34.785 10.151 33.7971 9.77061C32.8425 9.40131 31.752 9.14961 30.1554 9.08061C28.5588 9.01161 28.0449 8.99391 23.9712 9.00171C19.8975 9.00951 19.3875 9.02691 17.7876 9.10491ZM17.9628 36.2213C16.5003 36.1577 15.7062 35.9147 15.177 35.7113C14.4762 35.4413 13.977 35.1149 13.4496 34.5926C12.9222 34.0703 12.5982 33.5693 12.3246 32.87C12.1191 32.3408 11.8716 31.5476 11.8032 30.0851C11.7288 28.5044 11.7132 28.0298 11.7045 24.0251C11.6958 20.0204 11.7111 19.5464 11.7804 17.9651C11.8428 16.5038 12.0873 15.7088 12.2904 15.1799C12.5604 14.4782 12.8856 13.9799 13.4091 13.4528C13.9326 12.9257 14.4321 12.6011 15.132 12.3275C15.6606 12.1211 16.4538 11.8757 17.9157 11.8061C19.4976 11.7311 19.9716 11.7161 23.9757 11.7074C27.9798 11.6987 28.455 11.7137 30.0375 11.7833C31.4988 11.8469 32.2941 12.089 32.8224 12.2933C33.5235 12.5633 34.0224 12.8876 34.5495 13.412C35.0766 13.9364 35.4015 14.4341 35.6751 15.1355C35.8818 15.6626 36.1272 16.4555 36.1962 17.9183C36.2715 19.5002 36.2886 19.9745 36.2958 23.9783C36.303 27.9821 36.2889 28.4576 36.2196 30.0383C36.1557 31.5008 35.9133 32.2952 35.7096 32.825C35.4396 33.5255 35.1141 34.025 34.5903 34.5518C34.0665 35.0786 33.5676 35.4032 32.8674 35.6768C32.3394 35.8829 31.5453 36.1289 30.0846 36.1985C28.5027 36.2729 28.0287 36.2885 24.0231 36.2972C20.0175 36.3059 19.545 36.2897 17.9631 36.2213M30.1911 15.983C30.1917 16.339 30.2979 16.6869 30.4962 16.9826C30.6945 17.2783 30.976 17.5085 31.3052 17.6442C31.6344 17.7799 31.9964 17.8149 32.3454 17.7448C32.6945 17.6747 33.015 17.5027 33.2662 17.2505C33.5175 16.9982 33.6884 16.6772 33.7572 16.3279C33.826 15.9785 33.7897 15.6167 33.6528 15.288C33.5159 14.9593 33.2846 14.6786 32.9882 14.4814C32.6918 14.2842 32.3436 14.1793 31.9875 14.18C31.5102 14.181 31.0529 14.3714 30.716 14.7095C30.3791 15.0477 30.1903 15.5057 30.1911 15.983ZM16.2981 24.0149C16.3065 28.2689 19.7613 31.7096 24.0144 31.7015C28.2675 31.6934 31.7106 28.2389 31.7025 23.9849C31.6944 19.7309 28.2387 16.2893 23.985 16.2977C19.7313 16.3061 16.29 19.7615 16.2981 24.0149ZM18.9999 24.0095C18.998 23.0206 19.2893 22.0533 19.8371 21.2299C20.3849 20.4066 21.1645 19.7642 22.0774 19.3839C22.9903 19.0037 23.9955 18.9027 24.9658 19.0937C25.9361 19.2847 26.828 19.7591 27.5286 20.457C28.2293 21.1549 28.7072 22.0449 28.9021 23.0144C29.0969 23.984 28.9999 24.9895 28.6233 25.9039C28.2466 26.8183 27.6073 27.6005 26.7862 28.1515C25.965 28.7026 24.9988 28.9977 24.0099 28.9997C23.3533 29.0011 22.7028 28.8731 22.0956 28.623C21.4884 28.373 20.9365 28.0058 20.4712 27.5424C20.006 27.079 19.6366 26.5285 19.3842 25.9223C19.1317 25.3161 19.0011 24.6662 18.9999 24.0095Z" fill="white"/>
</g>
<defs>
<clipPath id="clip0_501_11327">
<rect width="30" height="30" fill="white" transform="translate(9 9)"/>
</clipPath>
</defs>
</svg>
