<svg width="48" height="48" viewBox="0 0 48 48" fill="none" xmlns="http://www.w3.org/2000/svg">
<circle cx="24" cy="24" r="24" fill="#c5c5c5" />
<g clip-path="url(#clip0_501_11349)">
<path d="M17.6934 13.4998C18.5084 13.4998 19.3234 13.5775 20.0996 13.733C20.7594 13.8885 21.3803 14.1606 21.9625 14.5493C22.467 14.938 22.8939 15.4433 23.1656 16.0264C23.4761 16.7649 23.6313 17.5423 23.5925 18.3197C23.6313 19.1749 23.3984 20.03 22.9715 20.7685C22.5058 21.4682 21.8461 22.0124 21.1087 22.3622C22.1565 22.6343 23.0492 23.2951 23.6313 24.1502C24.2135 25.0831 24.4851 26.1715 24.4851 27.2598C24.4851 28.1539 24.3299 29.009 23.9418 29.7864C23.5925 30.4861 23.088 31.0691 22.5058 31.5744C21.8849 32.0409 21.1475 32.3907 20.4101 32.5851C19.6339 32.8183 18.8189 32.896 18.0039 32.896H9V13.4609H17.6934V13.4998ZM17.1501 21.3516C17.771 21.3905 18.4308 21.1961 18.9353 20.8074C19.4398 20.3798 19.7115 19.719 19.6339 19.0194C19.6339 18.6307 19.5563 18.242 19.401 17.8921C19.2458 17.62 19.0517 17.3868 18.7801 17.2313C18.5084 17.0759 18.1979 16.9204 17.8875 16.8815C17.5382 16.8038 17.1889 16.8038 16.8396 16.8038H13.0362V21.3516H17.1501ZM17.3829 29.6698C17.771 29.6698 18.1591 29.6309 18.5084 29.5532C18.8577 29.4755 19.1682 29.32 19.4787 29.1256C19.7503 28.9313 19.9832 28.6592 20.1384 28.3482C20.3325 27.9595 20.4101 27.5319 20.3713 27.1044C20.4489 26.2881 20.1384 25.5107 19.5563 24.9665C18.9353 24.5001 18.1979 24.3057 17.4217 24.3446H13.0362V29.7087H17.3829V29.6698Z" fill="white"/>
<path d="M30.2287 29.5922C30.8884 30.1753 31.7423 30.4862 32.5961 30.4474C33.2947 30.4474 33.9544 30.253 34.4978 29.8643C34.9635 29.5534 35.274 29.1258 35.468 28.6205H38.6892C38.3399 30.0587 37.4861 31.3414 36.3218 32.2354C35.1963 33.0128 33.838 33.3626 32.4408 33.3238C31.4706 33.3238 30.5004 33.1683 29.5689 32.7796C28.7539 32.4297 28.0165 31.9244 27.4344 31.2636C26.8522 30.564 26.3865 29.7866 26.076 28.9314C25.7267 27.9597 25.5715 26.949 25.6103 25.9384C25.6103 24.9278 25.7656 23.956 26.1148 22.9843C27.0463 20.2634 29.6077 18.4365 32.4797 18.4754C33.5275 18.4365 34.5366 18.7086 35.468 19.175C36.283 19.6415 37.0204 20.2634 37.5637 21.0408C38.1071 21.8571 38.534 22.7511 38.728 23.7228C38.9609 24.7335 39.0385 25.8218 38.9997 26.8713H29.3749C29.2584 27.8431 29.5689 28.8148 30.2287 29.5922ZM34.4201 22.168C33.8768 21.6238 33.1394 21.3517 32.3632 21.3906C31.8587 21.3906 31.3542 21.4684 30.9273 21.7016C30.578 21.8959 30.2675 22.168 29.9958 22.479C29.763 22.7899 29.6077 23.1009 29.4913 23.4896C29.4137 23.8006 29.3361 24.1115 29.3361 24.4225H35.3128C35.2352 23.6062 34.9247 22.8288 34.4201 22.168Z" fill="white"/>
<path d="M36.012 14.7822H28.5605V16.6869H36.012V14.7822Z" fill="white"/>
</g>
<defs>
<clipPath id="clip0_501_11349">
<rect width="30" height="19.8238" fill="white" transform="translate(9 13.5)"/>
</clipPath>
</defs>
</svg>
