<svg width="48" height="48" viewBox="0 0 48 48" fill="none" xmlns="http://www.w3.org/2000/svg">
<circle cx="24" cy="24" r="24" fill="#8C8C8C" fill-opacity="0.5"/>
<g clip-path="url(#clip0_501_11356)">
<path d="M24.0001 9C15.7169 9 9 15.7156 9 24.0001C9 30.6276 13.298 36.2503 19.258 38.2337C20.0077 38.3726 20.2829 37.9083 20.2829 37.5121C20.2829 37.1544 20.269 35.9728 20.2625 34.7194C16.0895 35.6268 15.2089 32.9496 15.2089 32.9496C14.5266 31.2158 13.5434 30.7548 13.5434 30.7548C12.1824 29.8238 13.646 29.8429 13.646 29.8429C15.1523 29.9487 15.9454 31.3887 15.9454 31.3887C17.2833 33.6818 19.4545 33.0189 20.3105 32.6356C20.4451 31.6661 20.8338 31.0044 21.2628 30.6298C17.9311 30.2505 14.4287 28.9643 14.4287 23.2167C14.4287 21.579 15.0147 20.2409 15.9742 19.1904C15.8185 18.8126 15.305 17.287 16.1195 15.2208C16.1195 15.2208 17.3791 14.8177 20.2456 16.7584C21.4421 16.426 22.7254 16.2594 24.0001 16.2537C25.2749 16.2594 26.5591 16.426 27.7579 16.7584C30.6209 14.8177 31.8787 15.2208 31.8787 15.2208C32.6952 17.287 32.1815 18.8126 32.0258 19.1904C32.9876 20.2409 33.5696 21.579 33.5696 23.2167C33.5696 28.978 30.0605 30.2465 26.7203 30.6179C27.2583 31.0834 27.7377 31.9962 27.7377 33.3957C27.7377 35.4027 27.7203 37.0181 27.7203 37.5121C27.7203 37.9113 27.9904 38.379 28.7507 38.2317C34.7075 36.246 39 30.6253 39 24.0001C39 15.7156 32.2841 9 24.0001 9Z" fill="white"/>
</g>
<defs>
<clipPath id="clip0_501_11356">
<rect width="30" height="29.2969" fill="white" transform="translate(9 9)"/>
</clipPath>
</defs>
</svg>
