<svg width="48" height="48" viewBox="0 0 48 48" fill="none" xmlns="http://www.w3.org/2000/svg">
<circle cx="24" cy="24" r="24" fill="#8C8C8C" />
<path d="M33.5053 33.2785H29.5047V27.0751C29.5047 25.5959 29.4781 23.6916 27.424 23.6916C25.3404 23.6916 25.0216 25.3033 25.0216 26.9674V33.2781H21.021V20.5215H24.8616V22.2648H24.9153C25.2997 21.6141 25.8551 21.0788 26.5224 20.716C27.1896 20.3531 27.9438 20.1762 28.7046 20.2042C32.7594 20.2042 33.507 22.8449 33.507 26.2804L33.5053 33.2785ZM16.5071 18.7778C16.0479 18.7778 15.599 18.6431 15.2172 18.3906C14.8354 18.1381 14.5378 17.7791 14.362 17.3591C14.1862 16.9391 14.1401 16.4769 14.2296 16.031C14.3191 15.5851 14.5402 15.1754 14.8648 14.8539C15.1894 14.5324 15.603 14.3134 16.0533 14.2246C16.5037 14.1358 16.9705 14.1812 17.3947 14.3552C17.8189 14.5291 18.1816 14.8236 18.4367 15.2016C18.6919 15.5796 18.8282 16.024 18.8282 16.4786C18.8283 16.7805 18.7683 17.0794 18.6517 17.3583C18.5351 17.6373 18.3641 17.8907 18.1486 18.1042C17.933 18.3177 17.6771 18.487 17.3955 18.6026C17.1138 18.7182 16.812 18.7777 16.5071 18.7778ZM18.5074 33.2785H14.5026V20.5215H18.5074V33.2785ZM35.4997 10.5018H12.4924C11.9702 10.496 11.467 10.6957 11.0934 11.057C10.7198 11.4183 10.5064 11.9117 10.5 12.4288V35.304C10.5062 35.8213 10.7194 36.3151 11.093 36.6768C11.4666 37.0385 11.9699 37.2385 12.4924 37.233H35.4997C36.0232 37.2395 36.5279 37.04 36.903 36.6783C37.278 36.3167 37.4928 35.8224 37.5 35.304V12.4271C37.4925 11.909 37.2777 11.4151 36.9026 11.0538C36.5275 10.6924 36.023 10.4933 35.4997 10.5002" fill="white"/>
</svg>
