<svg width="48" height="48" viewBox="0 0 48 48" fill="none" xmlns="http://www.w3.org/2000/svg">
<circle cx="24" cy="24" r="24" fill="#c5c5c5"/>
<g clip-path="url(#clip0_501_11331)">
<path d="M39 23.9996C39 15.7153 32.2843 8.99961 24 8.99961C15.7157 8.99961 9 15.7153 9 23.9996C9 31.4865 14.4853 37.6921 21.6562 38.8174V28.3355H17.8477V23.9996H21.6562V20.6949C21.6562 16.9355 23.8956 14.859 27.322 14.859C28.9631 14.859 30.6797 15.152 30.6797 15.152V18.8434H28.7882C26.9249 18.8434 26.3438 19.9996 26.3438 21.1858V23.9996H30.5039L29.8389 28.3355H26.3438V38.8174C33.5147 37.6921 39 31.4865 39 23.9996Z" fill="white"/>
</g>
<defs>
<clipPath id="clip0_501_11331">
<rect width="30" height="30" fill="white" transform="translate(9 9)"/>
</clipPath>
</defs>
</svg>
