<svg width="56" height="56" viewBox="0 0 56 56" fill="none" xmlns="http://www.w3.org/2000/svg">
<g filter="url(#filter0_d_501_11331)">
<circle cx="28" cy="24" r="24" fill="#54D99B"/>
<g clip-path="url(#clip0_501_11331)">
<path d="M43 23.9996C43 15.7153 36.2843 8.99961 28 8.99961C19.7157 8.99961 13 15.7153 13 23.9996C13 31.4865 18.4853 37.6921 25.6562 38.8174V28.3355H21.8477V23.9996H25.6562V20.6949C25.6562 16.9355 27.8956 14.859 31.322 14.859C32.9631 14.859 34.6797 15.152 34.6797 15.152V18.8434H32.7882C30.9249 18.8434 30.3438 19.9996 30.3438 21.1858V23.9996H34.5039L33.8389 28.3355H30.3438V38.8174C37.5147 37.6921 43 31.4865 43 23.9996Z" fill="white"/>
</g>
</g>
<defs>
<filter id="filter0_d_501_11331" x="0" y="0" width="56" height="56" filterUnits="userSpaceOnUse" color-interpolation-filters="sRGB">
<feFlood flood-opacity="0" result="BackgroundImageFix"/>
<feColorMatrix in="SourceAlpha" type="matrix" values="0 0 0 0 0 0 0 0 0 0 0 0 0 0 0 0 0 0 127 0" result="hardAlpha"/>
<feOffset dy="4"/>
<feGaussianBlur stdDeviation="2"/>
<feComposite in2="hardAlpha" operator="out"/>
<feColorMatrix type="matrix" values="0 0 0 0 0 0 0 0 0 0 0 0 0 0 0 0 0 0 0.25 0"/>
<feBlend mode="normal" in2="BackgroundImageFix" result="effect1_dropShadow_501_11331"/>
<feBlend mode="normal" in="SourceGraphic" in2="effect1_dropShadow_501_11331" result="shape"/>
</filter>
<clipPath id="clip0_501_11331">
<rect width="30" height="30" fill="white" transform="translate(13 9)"/>
</clipPath>
</defs>
</svg>
