<svg width="16" height="16" viewBox="0 0 16 16" fill="none" xmlns="http://www.w3.org/2000/svg">
<path d="M3.3621 5.70263C2.81317 5.01646 3.3017 4 4.18043 4H11.8196C12.6983 4 13.1868 5.01646 12.6379 5.70263V5.70263C12.225 6.21879 12 6.86012 12 7.52113V12C12 13.1046 11.1046 14 10 14H6C4.89543 14 4 13.1046 4 12V7.52113C4 6.86012 3.77503 6.21879 3.3621 5.70263V5.70263Z" stroke="#8C8C8C" stroke-width="1.1"/>
<path d="M9 11L9 8" stroke="#8C8C8C" stroke-width="1.1" stroke-linecap="round" stroke-linejoin="round"/>
<path d="M7 11L7 8" stroke="#8C8C8C" stroke-width="1.1" stroke-linecap="round" stroke-linejoin="round"/>
<path d="M11 4L10.7367 3.29775C10.4439 2.51715 9.69769 2 8.864 2H7.136C6.30231 2 5.55607 2.51715 5.26334 3.29775L5 4" stroke="#8C8C8C" stroke-width="1.1" stroke-linecap="round"/>
</svg>
